<?xml version="1.0" encoding="utf-8"?>
<!-- Generator: Adobe Illustrator 21.1.0, SVG Export Plug-In . SVG Version: 6.00 Build 0)  -->
<svg version="1.1" id="Layer_1" xmlns="http://www.w3.org/2000/svg" xmlns:xlink="http://www.w3.org/1999/xlink" x="0px" y="0px"
	 viewBox="0 0 590 132" style="enable-background:new 0 0 590 132;" xml:space="preserve">
<style type="text/css">
	.st0{fill:#272662;}
	.st1{fill:#50C1BE;}
	.st2{fill:#232558;}
	.st3{font-family:'Muli-Black';}
	.st4{font-size:107.113px;}
	.st5{font-family:'Muli-Bold';}
	.st6{font-size:28.9281px;}
</style>
<g>
	<g>
		<g>
			<path class="st0" d="M38.8,130.4H2.9V94.4h35.9V130.4z M8.3,125h25.2V99.8H8.3V125z"/>
		</g>
		<g>
			<path class="st0" d="M38.8,84.5H2.9V48.6h35.9V84.5z M8.3,79.1h25.2V54H8.3V79.1z"/>
		</g>
		<g>
			<path class="st1" d="M38.8,38.7H2.9V2.7h35.9V38.7z M8.3,33.3h25.2V8.1H8.3V33.3z"/>
		</g>
		<g>
			<path class="st1" d="M127,130.4H91V94.4H127V130.4z M96.4,125h25.2V99.8H96.4V125z"/>
		</g>
		<g>
			<path class="st0" d="M127,84.5H91V48.6H127V84.5z M96.4,79.1h25.2V54H96.4V79.1z"/>
		</g>
		<g>
			<path class="st0" d="M127,38.7H91V2.7H127V38.7z M96.4,33.3h25.2V8.1H96.4V33.3z"/>
		</g>
		<g>
			<path class="st0" d="M82.9,130.4H46.9V94.4h35.9V130.4z M52.3,125h25.2V99.8H52.3V125z"/>
		</g>
		<g>
			<path class="st1" d="M82.9,84.5H46.9V48.6h35.9V84.5z M52.3,79.1h25.2V54H52.3V79.1z"/>
		</g>
		<g>
			<path class="st0" d="M82.9,38.7H46.9V2.7h35.9V38.7z M52.3,33.3h25.2V8.1H52.3V33.3z"/>
		</g>
		<g>
			<g>
				<rect x="24.9" y="71.5" class="st0" width="35.9" height="35.9"/>
			</g>
			<g>
				<rect x="24.9" y="25.7" class="st1" width="35.9" height="35.9"/>
			</g>
			<g>
				<rect x="69" y="71.5" class="st1" width="35.9" height="35.9"/>
			</g>
			<g>
				<rect x="69" y="25.7" class="st0" width="35.9" height="35.9"/>
			</g>
		</g>
	</g>
	<g>
		<g>
			<text transform="matrix(1 0 0 1 159.0781 79.2471)" class="st2 st3 st4">ATSQFT</text>
		</g>
		<g>
			<text transform="matrix(1 0 0 1 156.6147 129.2588)" class="st2 st5 st6">COLLABORATIVE OWNERSHIP</text>
		</g>
	</g>
</g>
</svg>
